<mxfile host="app.diagrams.net" modified="2023-10-26T22:48:03.860Z" agent="Mozilla/5.0 (Windows NT 10.0; Win64; x64) AppleWebKit/537.36 (KHTML, like Gecko) Chrome/118.0.0.0 Safari/537.36" etag="z2Hy3cq6oExFlpFwymnE" version="22.0.8" type="device">
  <diagram name="Page-1" id="efa7a0a1-bf9b-a30e-e6df-94a7791c09e9">
    <mxGraphModel dx="1752" dy="962" grid="1" gridSize="10" guides="1" tooltips="1" connect="1" arrows="1" fold="1" page="1" pageScale="1" pageWidth="826" pageHeight="1169" background="none" math="0" shadow="0">
      <root>
        <mxCell id="0" />
        <mxCell id="1" parent="0" />
        <mxCell id="25" value="&lt;p style=&quot;margin: 0px; margin-top: 4px; text-align: center; text-decoration: underline;&quot;&gt;&lt;b&gt;User&lt;/b&gt;&lt;/p&gt;&lt;hr&gt;&lt;p style=&quot;margin: 0px; margin-left: 8px;&quot;&gt;&lt;/p&gt;&lt;ul&gt;&lt;li&gt;&lt;span style=&quot;background-color: initial;&quot;&gt;_id&lt;/span&gt;&lt;br&gt;&lt;/li&gt;&lt;li&gt;Info&lt;/li&gt;&lt;ul&gt;&lt;li&gt;email (main)&lt;/li&gt;&lt;li&gt;username (changeable) (unique)&lt;/li&gt;&lt;li&gt;password&lt;/li&gt;&lt;li&gt;profile pic&lt;/li&gt;&lt;li&gt;about&lt;/li&gt;&lt;li&gt;socials (github, x etc)&lt;/li&gt;&lt;/ul&gt;&lt;li&gt;Tags&lt;/li&gt;&lt;li&gt;Reputation&lt;/li&gt;&lt;ul&gt;&lt;li&gt;points&lt;/li&gt;&lt;li&gt;Badges&lt;/li&gt;&lt;ul&gt;&lt;li&gt;gold&lt;/li&gt;&lt;li&gt;silver&lt;/li&gt;&lt;li&gt;bronze&lt;/li&gt;&lt;/ul&gt;&lt;/ul&gt;&lt;li&gt;Saved posts&lt;/li&gt;&lt;ul&gt;&lt;li&gt;Saved questions&lt;/li&gt;&lt;li&gt;Saved Answers&lt;/li&gt;&lt;/ul&gt;&lt;li&gt;Followed Posts (Q / A) ( Tracking )&lt;/li&gt;&lt;li&gt;Activity&lt;/li&gt;&lt;ul&gt;&lt;li&gt;join date&lt;/li&gt;&lt;li&gt;last visited&lt;/li&gt;&lt;/ul&gt;&lt;li&gt;Questions&lt;/li&gt;&lt;li&gt;Answers&lt;/li&gt;&lt;li&gt;Comments&lt;/li&gt;&lt;/ul&gt;&lt;p&gt;&lt;/p&gt;" style="verticalAlign=top;align=left;overflow=fill;fontSize=12;fontFamily=Helvetica;html=1;strokeColor=#003366;shadow=1;fillColor=#D4E1F5;fontColor=#003366" parent="1" vertex="1">
          <mxGeometry x="310" y="240" width="360" height="410" as="geometry" />
        </mxCell>
        <mxCell id="kKvAJ-bUe4pKs9QFqgQx-122" value="" style="endArrow=classic;html=1;rounded=0;fontFamily=Helvetica;fontSize=12;fontColor=#003366;curved=1;elbow=vertical;entryX=-0.009;entryY=0.111;entryDx=0;entryDy=0;entryPerimeter=0;exitX=-0.009;exitY=0.111;exitDx=0;exitDy=0;exitPerimeter=0;" edge="1" parent="1" source="kKvAJ-bUe4pKs9QFqgQx-115">
          <mxGeometry width="50" height="50" relative="1" as="geometry">
            <mxPoint x="530" y="470" as="sourcePoint" />
            <mxPoint x="480" y="520" as="targetPoint" />
          </mxGeometry>
        </mxCell>
        <mxCell id="kKvAJ-bUe4pKs9QFqgQx-124" value="Reference" style="edgeLabel;html=1;align=center;verticalAlign=middle;resizable=0;points=[];fontSize=12;fontFamily=Helvetica;fontColor=#003366;" vertex="1" connectable="0" parent="kKvAJ-bUe4pKs9QFqgQx-122">
          <mxGeometry x="-0.0805" y="3" relative="1" as="geometry">
            <mxPoint as="offset" />
          </mxGeometry>
        </mxCell>
        <mxCell id="kKvAJ-bUe4pKs9QFqgQx-115" value="&lt;p style=&quot;margin: 0px; margin-top: 4px; text-align: center; text-decoration: underline;&quot;&gt;&lt;b&gt;Questions&lt;/b&gt;&lt;/p&gt;&lt;hr&gt;&lt;p style=&quot;margin: 0px; margin-left: 8px;&quot;&gt;&lt;/p&gt;&lt;ul&gt;&lt;li&gt;_id&lt;/li&gt;&lt;li&gt;Author&lt;/li&gt;&lt;li&gt;Title&lt;/li&gt;&lt;li&gt;Body&lt;/li&gt;&lt;ul&gt;&lt;li&gt;Text&lt;/li&gt;&lt;li&gt;Media&lt;/li&gt;&lt;/ul&gt;&lt;li&gt;Tags(Topics)&lt;/li&gt;&lt;li&gt;Score&lt;/li&gt;&lt;ul&gt;&lt;li&gt;Upvotes&lt;/li&gt;&lt;li&gt;Downvotes&lt;/li&gt;&lt;/ul&gt;&lt;li&gt;Activity&lt;/li&gt;&lt;ul&gt;&lt;li&gt;saves&lt;/li&gt;&lt;li&gt;Initial Issue date/time&lt;/li&gt;&lt;li&gt;Last Modified&lt;/li&gt;&lt;li&gt;Total views&lt;/li&gt;&lt;/ul&gt;&lt;li&gt;Users Following&lt;/li&gt;&lt;li&gt;Answers&lt;/li&gt;&lt;li&gt;Comments&lt;/li&gt;&lt;/ul&gt;&lt;p&gt;&lt;/p&gt;" style="verticalAlign=top;align=left;overflow=fill;fontSize=12;fontFamily=Helvetica;html=1;strokeColor=#003366;shadow=1;fillColor=#D4E1F5;fontColor=#003366" vertex="1" parent="1">
          <mxGeometry x="940" y="250" width="360" height="360" as="geometry" />
        </mxCell>
        <mxCell id="kKvAJ-bUe4pKs9QFqgQx-116" value="&lt;p style=&quot;margin: 0px; margin-top: 4px; text-align: center; text-decoration: underline;&quot;&gt;&lt;b&gt;Answers&lt;/b&gt;&lt;/p&gt;&lt;hr&gt;&lt;p style=&quot;margin: 0px; margin-left: 8px;&quot;&gt;&lt;/p&gt;&lt;ul&gt;&lt;li&gt;_id&lt;/li&gt;&lt;li&gt;Author&lt;/li&gt;&lt;li&gt;Body&lt;/li&gt;&lt;ul&gt;&lt;li&gt;Text&lt;/li&gt;&lt;li&gt;Media&lt;/li&gt;&lt;/ul&gt;&lt;li&gt;Tags(Topics) (same as question)&lt;/li&gt;&lt;li&gt;Score&lt;/li&gt;&lt;ul&gt;&lt;li&gt;Upvotes&lt;/li&gt;&lt;li&gt;Downvotes&lt;/li&gt;&lt;/ul&gt;&lt;li&gt;isSatisfactory&lt;/li&gt;&lt;li&gt;Activity&lt;/li&gt;&lt;ul&gt;&lt;li&gt;saves&lt;/li&gt;&lt;li&gt;Issue date/time&lt;/li&gt;&lt;li&gt;Last Modified&lt;/li&gt;&lt;li&gt;Total views&lt;/li&gt;&lt;/ul&gt;&lt;li&gt;Users Following&lt;/li&gt;&lt;li&gt;The Question&lt;/li&gt;&lt;li&gt;Comments&lt;/li&gt;&lt;/ul&gt;&lt;p&gt;&lt;/p&gt;" style="verticalAlign=top;align=left;overflow=fill;fontSize=12;fontFamily=Helvetica;html=1;strokeColor=#003366;shadow=1;fillColor=#D4E1F5;fontColor=#003366" vertex="1" parent="1">
          <mxGeometry x="950" y="730" width="360" height="360" as="geometry" />
        </mxCell>
        <mxCell id="kKvAJ-bUe4pKs9QFqgQx-117" value="&lt;p style=&quot;margin: 0px; margin-top: 4px; text-align: center; text-decoration: underline;&quot;&gt;&lt;b&gt;Comments&lt;/b&gt;&lt;/p&gt;&lt;hr&gt;&lt;p style=&quot;margin: 0px; margin-left: 8px;&quot;&gt;&lt;/p&gt;&lt;ul&gt;&lt;li&gt;_id&lt;/li&gt;&lt;li&gt;Author&lt;/li&gt;&lt;li&gt;Body&lt;/li&gt;&lt;ul&gt;&lt;li&gt;Text&lt;/li&gt;&lt;/ul&gt;&lt;li&gt;Score&lt;/li&gt;&lt;ul&gt;&lt;li&gt;Upvotes&lt;/li&gt;&lt;li&gt;&lt;span style=&quot;background-color: initial;&quot;&gt;Downvotes&lt;/span&gt;&lt;br&gt;&lt;/li&gt;&lt;/ul&gt;&lt;li&gt;Activity&lt;/li&gt;&lt;ul&gt;&lt;li&gt;Issue date/time&lt;/li&gt;&lt;li&gt;Last Modified&lt;/li&gt;&lt;/ul&gt;&lt;li&gt;The Question&lt;/li&gt;&lt;li&gt;The Answer&lt;/li&gt;&lt;/ul&gt;&lt;p&gt;&lt;/p&gt;" style="verticalAlign=top;align=left;overflow=fill;fontSize=12;fontFamily=Helvetica;html=1;strokeColor=#003366;shadow=1;fillColor=#D4E1F5;fontColor=#003366" vertex="1" parent="1">
          <mxGeometry x="270" y="760" width="360" height="360" as="geometry" />
        </mxCell>
        <mxCell id="kKvAJ-bUe4pKs9QFqgQx-123" value="" style="endArrow=classic;html=1;rounded=0;fontFamily=Helvetica;fontSize=12;fontColor=#003366;curved=1;elbow=vertical;entryX=-0.006;entryY=0.128;entryDx=0;entryDy=0;entryPerimeter=0;exitX=-0.006;exitY=0.128;exitDx=0;exitDy=0;exitPerimeter=0;" edge="1" parent="1" source="kKvAJ-bUe4pKs9QFqgQx-116">
          <mxGeometry width="50" height="50" relative="1" as="geometry">
            <mxPoint x="530" y="480" as="sourcePoint" />
            <mxPoint x="480" y="530" as="targetPoint" />
          </mxGeometry>
        </mxCell>
        <mxCell id="kKvAJ-bUe4pKs9QFqgQx-125" value="Reference" style="edgeLabel;html=1;align=center;verticalAlign=middle;resizable=0;points=[];fontSize=12;fontFamily=Helvetica;fontColor=#003366;" vertex="1" connectable="0" parent="kKvAJ-bUe4pKs9QFqgQx-123">
          <mxGeometry x="-0.0495" y="-1" relative="1" as="geometry">
            <mxPoint as="offset" />
          </mxGeometry>
        </mxCell>
        <mxCell id="kKvAJ-bUe4pKs9QFqgQx-126" value="" style="endArrow=classic;html=1;rounded=0;fontFamily=Helvetica;fontSize=12;fontColor=#003366;curved=1;elbow=vertical;" edge="1" parent="1">
          <mxGeometry width="50" height="50" relative="1" as="geometry">
            <mxPoint x="700" y="410" as="sourcePoint" />
            <mxPoint x="410" y="600" as="targetPoint" />
          </mxGeometry>
        </mxCell>
        <mxCell id="kKvAJ-bUe4pKs9QFqgQx-127" value="" style="endArrow=classic;startArrow=classic;html=1;rounded=0;fontFamily=Helvetica;fontSize=12;fontColor=#003366;curved=1;elbow=vertical;fillColor=#ffe6cc;strokeColor=#d79b00;" edge="1" parent="1">
          <mxGeometry width="50" height="50" relative="1" as="geometry">
            <mxPoint x="520" y="540" as="sourcePoint" />
            <mxPoint x="970" y="510" as="targetPoint" />
          </mxGeometry>
        </mxCell>
        <mxCell id="kKvAJ-bUe4pKs9QFqgQx-129" value="Related" style="edgeLabel;html=1;align=center;verticalAlign=middle;resizable=0;points=[];fontSize=12;fontFamily=Helvetica;fontColor=#003366;" vertex="1" connectable="0" parent="kKvAJ-bUe4pKs9QFqgQx-127">
          <mxGeometry x="0.0625" y="1" relative="1" as="geometry">
            <mxPoint as="offset" />
          </mxGeometry>
        </mxCell>
        <mxCell id="kKvAJ-bUe4pKs9QFqgQx-128" value="" style="endArrow=classic;html=1;rounded=0;fontFamily=Helvetica;fontSize=12;fontColor=#003366;curved=1;elbow=vertical;" edge="1" parent="1">
          <mxGeometry width="50" height="50" relative="1" as="geometry">
            <mxPoint x="370" y="290" as="sourcePoint" />
            <mxPoint x="970" y="510" as="targetPoint" />
            <Array as="points">
              <mxPoint x="660" y="290" />
            </Array>
          </mxGeometry>
        </mxCell>
        <mxCell id="kKvAJ-bUe4pKs9QFqgQx-132" value="Reference" style="edgeLabel;html=1;align=center;verticalAlign=middle;resizable=0;points=[];fontSize=12;fontFamily=Helvetica;fontColor=#003366;" vertex="1" connectable="0" parent="kKvAJ-bUe4pKs9QFqgQx-128">
          <mxGeometry x="-0.4999" relative="1" as="geometry">
            <mxPoint as="offset" />
          </mxGeometry>
        </mxCell>
        <mxCell id="kKvAJ-bUe4pKs9QFqgQx-130" value="" style="endArrow=classic;html=1;rounded=0;fontFamily=Helvetica;fontSize=12;fontColor=#003366;curved=1;elbow=vertical;fillColor=#ffe6cc;strokeColor=#d79b00;startArrow=classic;startFill=1;" edge="1" parent="1">
          <mxGeometry width="50" height="50" relative="1" as="geometry">
            <mxPoint x="500" y="550" as="sourcePoint" />
            <mxPoint x="980" y="990" as="targetPoint" />
          </mxGeometry>
        </mxCell>
        <mxCell id="kKvAJ-bUe4pKs9QFqgQx-131" value="Related" style="edgeLabel;html=1;align=center;verticalAlign=middle;resizable=0;points=[];fontSize=12;fontFamily=Helvetica;fontColor=#003366;" vertex="1" connectable="0" parent="kKvAJ-bUe4pKs9QFqgQx-130">
          <mxGeometry x="0.0585" y="2" relative="1" as="geometry">
            <mxPoint as="offset" />
          </mxGeometry>
        </mxCell>
        <mxCell id="kKvAJ-bUe4pKs9QFqgQx-133" value="" style="endArrow=classic;startArrow=classic;html=1;rounded=0;fontFamily=Helvetica;fontSize=12;fontColor=#003366;curved=1;elbow=vertical;entryX=0.083;entryY=0.167;entryDx=0;entryDy=0;entryPerimeter=0;fillColor=#ffe6cc;strokeColor=#d79b00;" edge="1" parent="1" target="kKvAJ-bUe4pKs9QFqgQx-115">
          <mxGeometry width="50" height="50" relative="1" as="geometry">
            <mxPoint x="400" y="600" as="sourcePoint" />
            <mxPoint x="460" y="560" as="targetPoint" />
            <Array as="points">
              <mxPoint x="730" y="490" />
            </Array>
          </mxGeometry>
        </mxCell>
        <mxCell id="kKvAJ-bUe4pKs9QFqgQx-136" value="Related" style="edgeLabel;html=1;align=center;verticalAlign=middle;resizable=0;points=[];fontSize=12;fontFamily=Helvetica;fontColor=#003366;" vertex="1" connectable="0" parent="kKvAJ-bUe4pKs9QFqgQx-133">
          <mxGeometry x="0.6963" y="-1" relative="1" as="geometry">
            <mxPoint as="offset" />
          </mxGeometry>
        </mxCell>
        <mxCell id="kKvAJ-bUe4pKs9QFqgQx-134" value="" style="endArrow=classic;startArrow=classic;html=1;rounded=0;fontFamily=Helvetica;fontSize=12;fontColor=#003366;curved=1;elbow=vertical;entryX=0.083;entryY=0.167;entryDx=0;entryDy=0;entryPerimeter=0;fillColor=#ffe6cc;strokeColor=#d79b00;" edge="1" parent="1" target="kKvAJ-bUe4pKs9QFqgQx-116">
          <mxGeometry width="50" height="50" relative="1" as="geometry">
            <mxPoint x="400" y="620" as="sourcePoint" />
            <mxPoint x="450" y="570" as="targetPoint" />
          </mxGeometry>
        </mxCell>
        <mxCell id="kKvAJ-bUe4pKs9QFqgQx-135" value="Related" style="edgeLabel;html=1;align=center;verticalAlign=middle;resizable=0;points=[];fontSize=12;fontFamily=Helvetica;fontColor=#003366;" vertex="1" connectable="0" parent="kKvAJ-bUe4pKs9QFqgQx-134">
          <mxGeometry x="0.2046" y="-1" relative="1" as="geometry">
            <mxPoint as="offset" />
          </mxGeometry>
        </mxCell>
        <mxCell id="kKvAJ-bUe4pKs9QFqgQx-137" value="" style="endArrow=classic;startArrow=classic;html=1;rounded=0;fontFamily=Helvetica;fontSize=12;fontColor=#003366;curved=1;elbow=vertical;exitX=0.083;exitY=0.167;exitDx=0;exitDy=0;exitPerimeter=0;fillColor=#ffe6cc;strokeColor=#d79b00;" edge="1" parent="1" source="kKvAJ-bUe4pKs9QFqgQx-117">
          <mxGeometry width="50" height="50" relative="1" as="geometry">
            <mxPoint x="310" y="690" as="sourcePoint" />
            <mxPoint x="360" y="640" as="targetPoint" />
          </mxGeometry>
        </mxCell>
        <mxCell id="kKvAJ-bUe4pKs9QFqgQx-150" value="Related" style="edgeLabel;html=1;align=center;verticalAlign=middle;resizable=0;points=[];fontSize=12;fontFamily=Helvetica;fontColor=#003366;" vertex="1" connectable="0" parent="kKvAJ-bUe4pKs9QFqgQx-137">
          <mxGeometry x="0.1" y="2" relative="1" as="geometry">
            <mxPoint as="offset" />
          </mxGeometry>
        </mxCell>
        <mxCell id="kKvAJ-bUe4pKs9QFqgQx-139" value="" style="endArrow=classic;html=1;rounded=0;fontFamily=Helvetica;fontSize=12;fontColor=#003366;curved=1;elbow=vertical;exitX=0.167;exitY=0.122;exitDx=0;exitDy=0;exitPerimeter=0;entryX=0.083;entryY=0.167;entryDx=0;entryDy=0;entryPerimeter=0;" edge="1" parent="1" source="25" target="kKvAJ-bUe4pKs9QFqgQx-115">
          <mxGeometry width="50" height="50" relative="1" as="geometry">
            <mxPoint x="670" y="260" as="sourcePoint" />
            <mxPoint x="971" y="487" as="targetPoint" />
          </mxGeometry>
        </mxCell>
        <mxCell id="kKvAJ-bUe4pKs9QFqgQx-140" value="Reference" style="edgeLabel;html=1;align=center;verticalAlign=middle;resizable=0;points=[];fontSize=12;fontFamily=Helvetica;fontColor=#003366;" vertex="1" connectable="0" parent="kKvAJ-bUe4pKs9QFqgQx-139">
          <mxGeometry x="-0.4999" relative="1" as="geometry">
            <mxPoint as="offset" />
          </mxGeometry>
        </mxCell>
        <mxCell id="kKvAJ-bUe4pKs9QFqgQx-141" value="" style="endArrow=classic;html=1;rounded=0;fontFamily=Helvetica;fontSize=12;fontColor=#003366;curved=1;elbow=vertical;entryX=0.083;entryY=0.778;entryDx=0;entryDy=0;entryPerimeter=0;" edge="1" parent="1" target="kKvAJ-bUe4pKs9QFqgQx-115">
          <mxGeometry width="50" height="50" relative="1" as="geometry">
            <mxPoint x="970" y="780" as="sourcePoint" />
            <mxPoint x="1020" y="730" as="targetPoint" />
            <Array as="points">
              <mxPoint x="1050" y="650" />
            </Array>
          </mxGeometry>
        </mxCell>
        <mxCell id="kKvAJ-bUe4pKs9QFqgQx-142" value="Reference" style="edgeLabel;html=1;align=center;verticalAlign=middle;resizable=0;points=[];fontSize=12;fontFamily=Helvetica;fontColor=#003366;" vertex="1" connectable="0" parent="kKvAJ-bUe4pKs9QFqgQx-141">
          <mxGeometry x="-0.2657" y="22" relative="1" as="geometry">
            <mxPoint as="offset" />
          </mxGeometry>
        </mxCell>
        <mxCell id="kKvAJ-bUe4pKs9QFqgQx-143" value="" style="endArrow=classic;html=1;rounded=0;fontFamily=Helvetica;fontSize=12;fontColor=#003366;curved=1;elbow=vertical;fillColor=#ffe6cc;strokeColor=#d79b00;startArrow=classic;startFill=1;" edge="1" parent="1">
          <mxGeometry width="50" height="50" relative="1" as="geometry">
            <mxPoint x="330" y="810" as="sourcePoint" />
            <mxPoint x="980" y="540" as="targetPoint" />
          </mxGeometry>
        </mxCell>
        <mxCell id="kKvAJ-bUe4pKs9QFqgQx-144" value="Related" style="edgeLabel;html=1;align=center;verticalAlign=middle;resizable=0;points=[];fontSize=12;fontFamily=Helvetica;fontColor=#003366;" vertex="1" connectable="0" parent="kKvAJ-bUe4pKs9QFqgQx-143">
          <mxGeometry x="0.5453" y="3" relative="1" as="geometry">
            <mxPoint as="offset" />
          </mxGeometry>
        </mxCell>
        <mxCell id="kKvAJ-bUe4pKs9QFqgQx-145" value="" style="endArrow=classic;html=1;rounded=0;fontFamily=Helvetica;fontSize=12;fontColor=#003366;curved=1;elbow=vertical;" edge="1" parent="1">
          <mxGeometry width="50" height="50" relative="1" as="geometry">
            <mxPoint x="370" y="290" as="sourcePoint" />
            <mxPoint x="970" y="790" as="targetPoint" />
            <Array as="points">
              <mxPoint x="670" y="300" />
            </Array>
          </mxGeometry>
        </mxCell>
        <mxCell id="kKvAJ-bUe4pKs9QFqgQx-146" value="Reference" style="edgeLabel;html=1;align=center;verticalAlign=middle;resizable=0;points=[];fontSize=12;fontFamily=Helvetica;fontColor=#003366;" vertex="1" connectable="0" parent="kKvAJ-bUe4pKs9QFqgQx-145">
          <mxGeometry x="-0.4999" relative="1" as="geometry">
            <mxPoint as="offset" />
          </mxGeometry>
        </mxCell>
        <mxCell id="kKvAJ-bUe4pKs9QFqgQx-147" value="" style="endArrow=classic;html=1;rounded=0;fontFamily=Helvetica;fontSize=12;fontColor=#003366;elbow=vertical;edgeStyle=orthogonalEdgeStyle;" edge="1" parent="1">
          <mxGeometry width="50" height="50" relative="1" as="geometry">
            <mxPoint x="1110" y="610" as="sourcePoint" />
            <mxPoint x="1070" y="1010" as="targetPoint" />
            <Array as="points">
              <mxPoint x="1250" y="610" />
              <mxPoint x="1250" y="1010" />
            </Array>
          </mxGeometry>
        </mxCell>
        <mxCell id="kKvAJ-bUe4pKs9QFqgQx-148" value="" style="endArrow=classic;html=1;rounded=0;fontFamily=Helvetica;fontSize=12;fontColor=#003366;curved=1;elbow=vertical;entryX=0.111;entryY=0.806;entryDx=0;entryDy=0;entryPerimeter=0;fillColor=#ffe6cc;strokeColor=#d79b00;startArrow=classic;startFill=1;" edge="1" parent="1" target="kKvAJ-bUe4pKs9QFqgQx-116">
          <mxGeometry width="50" height="50" relative="1" as="geometry">
            <mxPoint x="330" y="810" as="sourcePoint" />
            <mxPoint x="380" y="760" as="targetPoint" />
          </mxGeometry>
        </mxCell>
        <mxCell id="kKvAJ-bUe4pKs9QFqgQx-149" value="Related" style="edgeLabel;html=1;align=center;verticalAlign=middle;resizable=0;points=[];fontSize=12;fontFamily=Helvetica;fontColor=#003366;" vertex="1" connectable="0" parent="kKvAJ-bUe4pKs9QFqgQx-148">
          <mxGeometry x="0.2486" y="-3" relative="1" as="geometry">
            <mxPoint as="offset" />
          </mxGeometry>
        </mxCell>
        <mxCell id="kKvAJ-bUe4pKs9QFqgQx-152" value="" style="endArrow=classic;html=1;rounded=0;fontFamily=Helvetica;fontSize=12;fontColor=#003366;elbow=vertical;edgeStyle=orthogonalEdgeStyle;exitX=0.083;exitY=0.122;exitDx=0;exitDy=0;exitPerimeter=0;" edge="1" parent="1" source="25">
          <mxGeometry width="50" height="50" relative="1" as="geometry">
            <mxPoint x="170" y="420" as="sourcePoint" />
            <mxPoint x="300" y="820" as="targetPoint" />
            <Array as="points">
              <mxPoint x="150" y="290" />
              <mxPoint x="150" y="820" />
            </Array>
          </mxGeometry>
        </mxCell>
        <mxCell id="kKvAJ-bUe4pKs9QFqgQx-155" value="Refernce" style="edgeLabel;html=1;align=center;verticalAlign=middle;resizable=0;points=[];fontSize=12;fontFamily=Helvetica;fontColor=#003366;" vertex="1" connectable="0" parent="kKvAJ-bUe4pKs9QFqgQx-152">
          <mxGeometry x="0.4077" y="-3" relative="1" as="geometry">
            <mxPoint as="offset" />
          </mxGeometry>
        </mxCell>
        <mxCell id="kKvAJ-bUe4pKs9QFqgQx-153" value="" style="endArrow=classic;html=1;rounded=0;fontFamily=Helvetica;fontSize=12;fontColor=#003366;elbow=vertical;edgeStyle=orthogonalEdgeStyle;entryX=0.083;entryY=0.528;entryDx=0;entryDy=0;entryPerimeter=0;" edge="1" parent="1" target="kKvAJ-bUe4pKs9QFqgQx-117">
          <mxGeometry width="50" height="50" relative="1" as="geometry">
            <mxPoint x="960" y="300" as="sourcePoint" />
            <mxPoint x="50" y="970" as="targetPoint" />
            <Array as="points">
              <mxPoint x="960" y="190" />
              <mxPoint x="50" y="190" />
              <mxPoint x="50" y="950" />
            </Array>
          </mxGeometry>
        </mxCell>
        <mxCell id="kKvAJ-bUe4pKs9QFqgQx-154" value="Refernce" style="edgeLabel;html=1;align=center;verticalAlign=middle;resizable=0;points=[];fontSize=12;fontFamily=Helvetica;fontColor=#003366;" vertex="1" connectable="0" parent="kKvAJ-bUe4pKs9QFqgQx-153">
          <mxGeometry x="0.8295" relative="1" as="geometry">
            <mxPoint as="offset" />
          </mxGeometry>
        </mxCell>
        <mxCell id="kKvAJ-bUe4pKs9QFqgQx-156" value="" style="endArrow=classic;html=1;rounded=0;fontFamily=Helvetica;fontSize=12;fontColor=#003366;curved=1;elbow=vertical;entryX=0.083;entryY=0.583;entryDx=0;entryDy=0;entryPerimeter=0;" edge="1" parent="1" target="kKvAJ-bUe4pKs9QFqgQx-117">
          <mxGeometry width="50" height="50" relative="1" as="geometry">
            <mxPoint x="980" y="1090" as="sourcePoint" />
            <mxPoint x="1030" y="1040" as="targetPoint" />
          </mxGeometry>
        </mxCell>
        <mxCell id="kKvAJ-bUe4pKs9QFqgQx-157" value="" style="endArrow=classic;html=1;rounded=0;fontFamily=Helvetica;fontSize=12;fontColor=#003366;curved=1;elbow=vertical;fillColor=#6a00ff;strokeColor=#3700CC;" edge="1" parent="1">
          <mxGeometry width="50" height="50" relative="1" as="geometry">
            <mxPoint x="1070" y="410" as="sourcePoint" />
            <mxPoint x="1390" y="190" as="targetPoint" />
          </mxGeometry>
        </mxCell>
        <mxCell id="kKvAJ-bUe4pKs9QFqgQx-159" value="" style="endArrow=classic;html=1;rounded=0;fontFamily=Helvetica;fontSize=12;fontColor=#003366;elbow=vertical;edgeStyle=orthogonalEdgeStyle;fillColor=#6a00ff;strokeColor=#3700CC;" edge="1" parent="1">
          <mxGeometry width="50" height="50" relative="1" as="geometry">
            <mxPoint x="410" y="880" as="sourcePoint" />
            <mxPoint x="1400" y="200" as="targetPoint" />
            <Array as="points">
              <mxPoint x="410" y="1140" />
              <mxPoint x="1400" y="1140" />
            </Array>
          </mxGeometry>
        </mxCell>
        <mxCell id="kKvAJ-bUe4pKs9QFqgQx-162" value="" style="endArrow=classic;html=1;rounded=0;fontFamily=Helvetica;fontSize=12;fontColor=#003366;edgeStyle=elbowEdgeStyle;fillColor=#6a00ff;strokeColor=#3700CC;" edge="1" parent="1" target="kKvAJ-bUe4pKs9QFqgQx-163">
          <mxGeometry width="50" height="50" relative="1" as="geometry">
            <mxPoint x="1090" y="890" as="sourcePoint" />
            <mxPoint x="1400" y="200" as="targetPoint" />
            <Array as="points">
              <mxPoint x="1450" y="550" />
            </Array>
          </mxGeometry>
        </mxCell>
        <mxCell id="kKvAJ-bUe4pKs9QFqgQx-163" value="Collective Score" style="ellipse;whiteSpace=wrap;html=1;aspect=fixed;shadow=1;strokeColor=#003366;align=left;verticalAlign=top;fontFamily=Helvetica;fontSize=12;fontColor=#003366;fillColor=#D4E1F5;" vertex="1" parent="1">
          <mxGeometry x="1380" y="150" width="50" height="50" as="geometry" />
        </mxCell>
        <mxCell id="kKvAJ-bUe4pKs9QFqgQx-164" value="" style="endArrow=none;html=1;rounded=0;fontFamily=Helvetica;fontSize=12;fontColor=#003366;elbow=vertical;edgeStyle=elbowEdgeStyle;entryX=0.5;entryY=0;entryDx=0;entryDy=0;exitX=0.083;exitY=0.439;exitDx=0;exitDy=0;exitPerimeter=0;startArrow=classic;startFill=1;endFill=0;fillColor=#6a00ff;strokeColor=#3700CC;" edge="1" parent="1" source="25" target="kKvAJ-bUe4pKs9QFqgQx-163">
          <mxGeometry width="50" height="50" relative="1" as="geometry">
            <mxPoint x="220" y="180" as="sourcePoint" />
            <mxPoint x="1210" y="80" as="targetPoint" />
            <Array as="points">
              <mxPoint x="790" y="40" />
            </Array>
          </mxGeometry>
        </mxCell>
      </root>
    </mxGraphModel>
  </diagram>
</mxfile>
